<svg id="Layer_1" data-name="Layer 1" xmlns="http://www.w3.org/2000/svg" xmlns:xlink="http://www.w3.org/1999/xlink" viewBox="0 0 500 500"><defs><style>.cls-1{fill:url(#linear-gradient);}</style><linearGradient id="linear-gradient" x1="250" y1="464.95" x2="250" y2="35.05" gradientUnits="userSpaceOnUse"><stop offset="0" stop-color="#e5e5e5"/><stop offset="0.09" stop-color="#dce2e4"/><stop offset="0.24" stop-color="#c3d9e1"/><stop offset="0.43" stop-color="#9bcbdb"/><stop offset="0.66" stop-color="#62b8d4"/><stop offset="0.91" stop-color="#1ca0cb"/><stop offset="1" stop-color="#0096c7"/></linearGradient></defs><g id="color_transparant" data-name="color transparant"><path class="cls-1" d="M169,309.28c-9.62-9.06-20.24-19.07-29.1-30.67-9.52-12.48-9.41-24.5-.68-37.08,2.09-3,3.37-3.74,6.1-.7,7.71,8.56,15.66,16.91,23.59,25.43,2.44-2.6,3.77-3.94,5-5.36,3.63-4.17,11.25-7.42,10.76-11.79s-7.19-8.08-11.19-12.06c-9.67-9.63-19.43-19.17-29-28.94-2.33-2.39-3.71-2.7-6-.09-5.74,6.53-11.86,12.73-17.54,19.29-14.57,16.83-13.08,35.8-6.74,55.17.89,2.75,3.29,5.11,5.32,7.36,15.29,16.93,30.93,33.52,47.29,49.44,4,3.88,6.28,3.47,10.11-.18,29.64-28.24,58-57.77,86.93-86.7,3.55-3.55,1.93-5.38-.52-7.87-16.13-16.47-32.3-32.89-48.34-49.44-10.13-10.46-21.22-20.42-26.91-34.15-11.58-28-8.55-54.43,11.15-77.87,13.93-16.58,29.84-31.31,45.83-45.9,2.54-2.31,4.47-3.14,7.55-.41C269.4,51.57,286,66.57,299.89,84.17c22.31,28.2,18.79,73.64-7.31,98.62-4,3.85-7.2,5-11.61.17-13-14.25-26.65-27.89-39.49-42.26-7.95-8.9-7.12-21.16.74-30.19,3.86-4.45,7.74-4.6,12.13-.77,8.34,7.28,15.8,15.44,23.48,23.38,1.59,1.64,2.65,3.91,4.5,4.51,3.73-25-12.23-40.16-28.38-55.2-2.71-2.52-5.12-2.45-8,.07a190.92,190.92,0,0,0-26.62,28.14c-8.21,10.91-8.44,28.42,0,39.1,20.91,26.42,45.32,49.62,69.41,73.09,3.36,3.28,4.44-.18,5.93-1.66q26-25.93,51.79-52a62.73,62.73,0,0,1,5.22-4.7c2.73-2.19,5.24-2.21,8,.35,28.61,26,42.6,39.4,51.34,55.89a177.61,177.61,0,0,1,8.94,19.73,64,64,0,0,1,1.69,8.46c.85,6.53,1,15.57-2.35,28-4.92,18.1-13.82,31.37-15.74,33.56-32.38,36.73-68,70.34-102.58,104.92-16,16-32.38,31.48-48.36,47.44-3.09,3.09-4.75,2.73-7.65,0q-26.79-25.59-52.54-52.22c-3.47-3.6-3.13-5.43.14-8.83,34.54-36,70.22-70.83,105.52-106,17.64-17.61,35.73-34.78,53.41-52.36,4.54-4.52,6.79-3.21,9.12,1.85,6,13.08,4,26.84-6.08,37.64-30.73,33.12-63.43,64.32-95,96.64-7.72,7.91-15.2,16-22.89,24-2.37,2.44-2.55,4.25-.31,7.11,11.53,14.69,11.47,14.78,24.26,1.78Q311.21,361,361.65,309.62c4.44-4.52,8.49-9.44,13-13.94,17.23-17.3,18.91-50.69,1.06-70.19-4.92-5.37-10.11-10.52-14.78-16.1-3.13-3.74-5-3.64-8.53-.11q-52.74,53-105.85,105.73c-23.3,23.27-46.63,46.52-69.73,70-3.59,3.65-5.51,4.05-9.34.18-23-23.24-46.67-45.73-68.88-69.78-28.47-30.83-26.17-80.59-2.7-109,12.45-15,26.39-28.73,40.68-42,3.56-3.31,5.66-3.16,9.14.09,27.81,26.07,54.5,53.25,81,80.67,2.89,3,3.61,4.77.15,8.07C207.41,271.72,188.28,290.51,169,309.28Z"/></g></svg>